<svg width="107" height="36" viewBox="0 0 107 36" fill="none" xmlns="http://www.w3.org/2000/svg">
<g clip-path="url(#clip0_2_912)">
<path d="M90.5032 22.7291L90.764 21.8272C91.0749 20.7543 90.9593 19.7624 90.4377 19.0337C89.9577 18.3625 89.1579 17.9672 88.1864 17.9213L69.7881 17.6885C69.731 17.6873 69.675 17.6728 69.6246 17.646C69.574 17.6193 69.5308 17.581 69.4978 17.5343C69.4657 17.4861 69.4451 17.4311 69.4379 17.3735C69.4308 17.316 69.4371 17.2576 69.4565 17.2029C69.488 17.1128 69.5453 17.0339 69.6212 16.9759C69.6973 16.918 69.7885 16.8836 69.8839 16.8769L88.4526 16.6415C90.6553 16.5405 93.0402 14.7545 93.8751 12.5766L94.934 9.8116C94.9775 9.69468 94.9874 9.568 94.9627 9.44578C93.7604 4.04138 88.9335 0 83.1624 0C77.845 0 73.3301 3.42949 71.7106 8.19628C70.6163 7.37548 69.2518 6.99815 67.8909 7.13985C65.3399 7.39298 63.2888 9.44536 63.0362 11.9949C62.9715 12.6315 63.0189 13.2746 63.1765 13.8948C59.0092 14.0162 55.6672 17.4279 55.6672 21.6216C55.6678 21.996 55.6954 22.3698 55.7501 22.7403C55.7621 22.8258 55.8045 22.9042 55.8696 22.9611C55.9347 23.018 56.0182 23.0496 56.1046 23.0501L90.0712 23.0544C90.0744 23.0545 90.0776 23.0545 90.0807 23.0544C90.1769 23.0526 90.2698 23.0201 90.3459 22.9616C90.4219 22.9029 90.4771 22.8215 90.5032 22.7291Z" fill="#E2E8F0"/>
<path d="M96.6324 10.0121C96.462 10.0121 96.2921 10.0164 96.1229 10.0249C96.0956 10.0269 96.0689 10.0327 96.0433 10.0423C95.999 10.0575 95.9589 10.0831 95.9266 10.1171C95.8944 10.1511 95.8708 10.1924 95.858 10.2375L95.1346 12.7344C94.8236 13.8074 94.9392 14.7984 95.4613 15.5271C95.941 16.1991 96.7408 16.5935 97.7121 16.6395L101.634 16.8748C101.689 16.8766 101.743 16.8912 101.792 16.9176C101.84 16.9439 101.882 16.9812 101.914 17.0264C101.946 17.0749 101.967 17.1303 101.974 17.1882C101.981 17.2462 101.975 17.305 101.955 17.3599C101.924 17.4498 101.866 17.5286 101.791 17.5865C101.715 17.6444 101.624 17.679 101.529 17.686L97.4534 17.9213C95.2407 18.0232 92.8563 19.8083 92.0221 21.9863L91.7278 22.7552C91.7155 22.7873 91.7109 22.8219 91.7146 22.8561C91.7184 22.8903 91.7301 22.9233 91.749 22.952C91.768 22.9808 91.7934 23.0047 91.8233 23.0217C91.8533 23.0386 91.887 23.0483 91.9214 23.0498C91.9251 23.0498 91.9285 23.0498 91.9322 23.0498H105.955C106.036 23.0505 106.116 23.0246 106.181 22.9758C106.247 22.927 106.294 22.8584 106.317 22.78C106.565 21.8942 106.691 20.9786 106.69 20.0586C106.688 14.5104 102.186 10.0121 96.6324 10.0121Z" fill="#E2E8F0"/>
<path d="M11.8745 27.2021H14.2668V33.7325H18.4472V35.8269H11.8745V27.2021Z" fill="#E2E8F0"/>
<path d="M20.9248 31.5394V31.5149C20.9248 29.0383 22.9224 27.0294 25.5858 27.0294C28.2493 27.0294 30.2218 29.0135 30.2218 31.49V31.5149C30.2218 33.9914 28.2239 35.9991 25.5614 35.9991C22.8988 35.9991 20.9248 34.0159 20.9248 31.5394ZM27.7802 31.5394V31.5149C27.7802 30.2721 26.8806 29.1857 25.5614 29.1857C24.2542 29.1857 23.3785 30.2455 23.3785 31.49V31.5149C23.3785 32.7579 24.2787 33.8437 25.5858 33.8437C26.9051 33.8437 27.7802 32.7839 27.7802 31.5394Z" fill="#E2E8F0"/>
<path d="M33.1499 32.0444V27.2018H35.5791V31.9955C35.5791 33.2383 36.2081 33.8311 37.1695 33.8311C38.131 33.8311 38.7599 33.2645 38.7599 32.0568V27.2018H41.1894V31.9814C41.1894 34.7662 39.599 35.9854 37.145 35.9854C34.691 35.9854 33.1499 34.7426 33.1499 32.0432" fill="#E2E8F0"/>
<path d="M44.8503 27.2025H48.1795C51.2626 27.2025 53.0504 28.9766 53.0504 31.4652V31.4904C53.0504 33.9787 51.2378 35.8273 48.1306 35.8273H44.8503V27.2025ZM48.217 33.707C49.6477 33.707 50.5963 32.9198 50.5963 31.5257V31.5012C50.5963 30.1217 49.6477 29.3205 48.217 29.3205H47.2427V33.7077L48.217 33.707Z" fill="#E2E8F0"/>
<path d="M56.5271 27.2021H63.432V29.2972H58.9194V30.763H63.0007V32.7465H58.9194V35.8269H56.5271V27.2021Z" fill="#E2E8F0"/>
<path d="M66.7607 27.2021H69.1529V33.7325H73.3333V35.8269H66.7607V27.2021Z" fill="#E2E8F0"/>
<path d="M79.5844 27.1405H81.8895L85.5645 35.827H82.9998L82.3704 34.2866H79.0409L78.4248 35.827H75.9094L79.5844 27.1405ZM81.6802 32.4265L80.7183 29.9742L79.744 32.4265H81.6802Z" fill="#E2E8F0"/>
<path d="M88.646 27.2018H92.7273C94.0474 27.2018 94.9591 27.5472 95.5387 28.1385C96.045 28.6315 96.3035 29.2985 96.3035 30.1474V30.1717C96.3035 31.4897 95.5988 32.3647 94.5278 32.8203L96.5873 35.8272H93.8243L92.0859 33.2147H91.0381V35.8272H88.646V27.2018ZM92.6166 31.3421C93.4305 31.3421 93.8993 30.9477 93.8993 30.3192V30.2948C93.8993 29.617 93.406 29.2724 92.6037 29.2724H91.0381V31.3437L92.6166 31.3421Z" fill="#E2E8F0"/>
<path d="M99.7551 27.2021H106.697V29.2355H102.123V30.5409H106.266V32.4264H102.123V33.7942H106.759V35.8269H99.7551V27.2021Z" fill="#E2E8F0"/>
<path d="M6.63694 32.5502C6.30195 33.3071 5.59711 33.8432 4.66053 33.8432C3.35288 33.8432 2.4532 32.7589 2.4532 31.5145V31.4897C2.4532 30.2467 3.32842 29.1854 4.63566 29.1854C5.62116 29.1854 6.37159 29.7911 6.68836 30.6151H9.20995C8.80613 28.5624 7.00095 27.0298 4.66053 27.0298C1.99672 27.0298 0 29.0399 0 31.5145V31.539C0 34.0156 1.97227 36 4.63566 36C6.9139 36 8.6946 34.5259 9.16436 32.5506L6.63694 32.5502Z" fill="#E2E8F0"/>
</g>
<defs>
<clipPath id="clip0_2_912">
<rect width="106.759" height="36" fill="white"/>
</clipPath>
</defs>
</svg>
