<svg width="153" height="36" viewBox="0 0 153 36" fill="none" xmlns="http://www.w3.org/2000/svg">
<g clip-path="url(#clip0_2_510)">
<path d="M22.7218 2.66471C22.4075 2.14325 21.9639 1.71186 21.4338 1.41239C20.9038 1.11293 20.3053 0.955566 19.6965 0.955566C19.0877 0.955566 18.4892 1.11293 17.9592 1.41239C17.4291 1.71186 16.9855 2.14325 16.6713 2.66471L11.6947 11.1884C15.4966 13.0864 18.7358 15.946 21.0908 19.4831C23.4458 23.0202 24.8346 27.1118 25.1193 31.3516H21.6251C21.3409 27.7173 20.1127 24.2202 18.0619 21.2064C16.0111 18.1926 13.2089 15.7665 9.93252 14.1682L5.32657 22.1322C7.16845 22.9582 8.77308 24.2341 9.99288 25.8425C11.2127 27.4508 12.0086 29.3401 12.3074 31.3365H4.28287C4.1877 31.3297 4.09571 31.2994 4.01518 31.2483C3.93466 31.1971 3.86813 31.1267 3.8216 31.0434C3.77508 30.9601 3.75002 30.8665 3.74869 30.7712C3.74735 30.6758 3.76978 30.5815 3.81396 30.497L6.03751 26.7154C5.28417 26.0869 4.42321 25.6 3.49631 25.2784L1.29544 29.06C1.06632 29.453 0.917571 29.8876 0.857847 30.3386C0.798121 30.7896 0.828605 31.2479 0.947524 31.687C1.06645 32.1261 1.27144 32.5372 1.55058 32.8964C1.82973 33.2556 2.17747 33.5557 2.57361 33.7794C3.09554 34.0735 3.68381 34.2296 4.28287 34.2332H15.2721C15.4762 31.7147 15.0264 29.1862 13.9664 26.8926C12.9064 24.599 11.272 22.6179 9.22159 21.1414L10.9687 18.1162C13.5563 19.8934 15.6358 22.3147 17.002 25.1412C18.368 27.9675 18.9736 31.1013 18.7587 34.2332H28.0689C28.2857 29.4888 27.2535 24.7706 25.0756 20.5501C22.8977 16.3297 19.6502 12.7547 15.6578 10.1825L19.1898 4.13195C19.2685 4.00008 19.3961 3.90464 19.5448 3.8664C19.6935 3.82815 19.8514 3.8502 19.9839 3.92775C20.3848 4.14708 35.3295 30.2247 35.6093 30.5272C35.6586 30.6156 35.6837 30.7155 35.682 30.8167C35.6803 30.9179 35.652 31.0169 35.5998 31.1036C35.5476 31.1903 35.4734 31.2617 35.3848 31.3106C35.2962 31.3594 35.1962 31.384 35.095 31.3819H31.495C31.5404 32.3449 31.5404 33.3054 31.495 34.2634H35.1102C35.5692 34.2664 36.0243 34.1784 36.4491 34.0043C36.8739 33.8302 37.26 33.5737 37.5849 33.2494C37.9099 32.9251 38.1673 32.5396 38.3423 32.1152C38.5172 31.6908 38.6063 31.2359 38.6043 30.7768C38.6048 30.1705 38.4429 29.5751 38.1354 29.0524L22.7218 2.66471ZM94.8134 22.344L83.6501 7.92863H80.8671V27.2524H83.6879V12.4438L95.169 27.2524H97.6346V7.92863H94.8134V22.344ZM66.7013 18.759H76.7074V16.2481H66.6938V10.432H77.9855V7.92108H63.8197V27.2524H78.1291V24.7415H66.6938L66.7013 18.759ZM54.9331 16.3086C51.0382 15.3707 49.949 14.6296 49.949 12.8295C49.949 11.211 51.3782 10.1144 53.5114 10.1144C55.4536 10.1712 57.327 10.847 58.8582 12.043L60.371 9.90261C58.4322 8.38281 56.027 7.58108 53.5643 7.63367C49.7374 7.63367 47.0674 9.90261 47.0674 13.1321C47.0674 16.6111 49.3366 17.8137 53.4657 18.8195C57.1414 19.6666 58.2685 20.4531 58.2685 22.2154C58.2685 23.9776 56.7557 25.0667 54.4189 25.0667C52.0922 25.056 49.8533 24.1767 48.1415 22.6011L46.4398 24.6356C48.6326 26.5197 51.4294 27.5531 54.3203 27.5473C58.4649 27.5473 61.1274 25.3162 61.1274 21.8675C61.1047 18.9481 59.38 17.3825 54.9331 16.3086ZM148.799 7.92863L142.983 17.0044L137.205 7.92863H133.832L141.463 19.6136V27.26H144.367V19.5229L152.051 7.92863H148.799ZM99.9185 10.5455H106.249V27.26H109.153V10.5455H115.483V7.92863H99.926L99.9185 10.5455ZM128.915 19.712C131.835 18.9027 133.453 16.8607 133.453 13.9413C133.453 10.2278 130.738 7.89081 126.359 7.89081H117.768V27.2448H120.641V20.3019H125.52L130.421 27.26H133.779L128.484 19.833L128.915 19.712ZM120.634 17.8212V10.485H126.057C128.885 10.485 130.504 11.8236 130.504 14.1455C130.504 16.4674 128.772 17.8212 126.087 17.8212H120.634Z" fill="#E2E8F0"/>
</g>
<defs>
<clipPath id="clip0_2_510">
<rect width="152" height="36" fill="white" transform="translate(0.444336)"/>
</clipPath>
</defs>
</svg>
